<svg xmlns="http://www.w3.org/2000/svg" version="1.0" viewBox="0 0 512 512"><path d="M265.3 111.1c-8.7 1.5-21.1 6.6-29.6 12.3-7.7 5.1-18.5 15.3-23.5 22.1l-2.1 3-.1-16.3V116h-54v306h58V310.7l7.3 7c17.9 17 31.8 23.6 52.7 24.9 16.7 1.1 32.9-2.7 47.5-11.3 8.5-4.9 23.8-19.2 29.3-27.4 4.8-7.2 10.8-19.7 13.5-28.5 5.3-16.8 6.2-24.1 6.2-49.9 0-25.9-.9-33.3-6.1-49.2-14.7-45.4-55.8-72.4-99.1-65.2zm13.7 47.8c15.2 5.8 25.8 20.2 30.7 41.5 2.4 10.4 2.4 41.2 0 52.4-3.6 16.7-9.6 27.8-19.1 35.2-23.1 17.7-55.3 8.2-68.5-20.2-6.3-13.4-7.6-21.1-7.6-44.3 0-17.8.2-20.9 2.3-27.8 5.8-20.1 17.9-33.6 34.2-38.2 7.5-2 20.7-1.4 28 1.4z"/></svg>